<?xml version="1.0" standalone="no"?>
<!DOCTYPE svg PUBLIC "-//W3C//DTD SVG 20010904//EN"
 "http://www.w3.org/TR/2001/REC-SVG-20010904/DTD/svg10.dtd">
<svg version="1.0" xmlns="http://www.w3.org/2000/svg"
 width="2550.000000pt" height="1680.000000pt" viewBox="0 0 2550.000000 1680.000000"
 preserveAspectRatio="xMidYMid meet">

<g transform="translate(0.000000,1680.000000) scale(0.100000,-0.100000)"
fill="#000000" stroke="none">
<path d="M12570 14374 c-1010 -39 -1962 -313 -2808 -808 -1622 -948 -2712
-2595 -2941 -4441 -34 -271 -44 -448 -44 -750 0 -674 91 -1244 300 -1880 642
-1956 2290 -3468 4304 -3949 468 -112 889 -160 1399 -160 321 1 470 9 755 45
1732 216 3303 1207 4270 2694 542 834 860 1777 946 2800 16 190 16 736 0 920
-90 1035 -401 1952 -946 2790 -1027 1578 -2731 2589 -4590 2724 -158 12 -516
20 -645 15z m600 -184 c1079 -70 2131 -451 3011 -1090 593 -431 1104 -973
1498 -1589 520 -813 822 -1719 901 -2711 15 -187 15 -663 0 -850 -71 -885
-314 -1690 -736 -2432 -912 -1607 -2525 -2688 -4349 -2917 -460 -58 -960 -60
-1420 -5 -1292 152 -2486 734 -3415 1664 -856 855 -1414 1923 -1625 3105 -99
560 -114 1212 -40 1780 206 1573 1061 3005 2358 3948 1107 804 2436 1186 3817
1097z"/>
<path d="M12580 14024 c-956 -38 -1822 -287 -2634 -756 -1526 -883 -2569
-2458 -2780 -4198 -40 -334 -52 -823 -27 -1125 80 -953 369 -1816 871 -2601
901 -1406 2393 -2355 4030 -2564 276 -35 419 -43 730 -43 385 -1 639 20 975
79 1147 201 2183 742 3015 1574 816 816 1354 1838 1566 2974 62 335 88 633 88
1016 0 382 -20 625 -80 970 -329 1919 -1657 3548 -3484 4278 -524 209 -1081
338 -1650 381 -144 12 -496 20 -620 15z m280 -129 c53 -51 57 -146 8 -193 -94
-87 -228 -29 -228 99 0 80 63 133 148 125 30 -2 52 -12 72 -31z m-1434 -164
c48 -22 74 -68 74 -130 0 -33 -7 -49 -33 -77 -28 -31 -42 -37 -83 -41 -80 -8
-122 21 -145 99 -18 64 18 129 86 153 51 18 52 18 101 -4z m2824 -10 c14 -10
34 -39 45 -65 17 -43 18 -50 5 -89 -20 -55 -67 -87 -130 -87 -112 0 -172 131
-99 215 49 56 122 66 179 26z m-1065 -176 c1001 -84 1900 -425 2691 -1018
1116 -838 1848 -2088 2034 -3472 55 -408 53 -982 -5 -1389 -107 -755 -372
-1466 -780 -2096 -634 -978 -1578 -1716 -2670 -2090 -567 -194 -1085 -280
-1690 -280 -805 0 -1533 166 -2250 514 -855 414 -1577 1054 -2097 1856 -416
642 -683 1369 -788 2145 -54 399 -52 936 4 1360 182 1365 913 2610 2021 3442
789 593 1707 944 2690 1028 208 17 634 18 840 0z m-3037 -373 c95 -89 41 -232
-88 -232 -78 0 -130 57 -130 141 0 35 6 48 39 80 36 36 43 39 94 39 46 0 60
-4 85 -28z m5419 -5 c32 -30 37 -41 41 -90 4 -55 3 -58 -36 -97 -35 -35 -45
-40 -86 -40 -87 0 -139 51 -139 135 0 76 52 124 136 125 40 0 53 -5 84 -33z
m-6562 -839 c60 -27 88 -134 49 -192 -35 -55 -135 -77 -185 -42 -64 44 -80
140 -32 196 14 18 36 36 47 40 31 13 91 12 121 -2z m7660 0 c59 -27 87 -135
49 -193 -35 -54 -135 -76 -185 -41 -64 44 -80 140 -32 196 14 18 36 36 47 40
31 13 91 12 121 -2z m-8498 -1141 c31 -29 37 -41 41 -90 6 -70 -18 -108 -84
-133 -42 -16 -51 -16 -87 -3 -55 19 -87 66 -87 128 0 77 57 131 138 131 34 0
49 -6 79 -33z m9363 16 c35 -24 48 -43 60 -83 40 -142 -161 -233 -238 -107
-26 42 -29 112 -6 146 40 57 133 79 184 44z m-9917 -1308 c36 -25 57 -68 57
-118 0 -40 -5 -53 -33 -83 -59 -65 -164 -58 -209 14 -26 43 -28 110 -4 147 37
57 135 78 189 40z m10465 -1 c25 -16 61 -86 62 -117 0 -34 -33 -89 -64 -108
-43 -26 -115 -25 -150 2 -64 50 -75 136 -25 194 48 55 120 67 177 29z m-10633
-1417 c56 -56 59 -135 6 -187 -72 -73 -185 -50 -220 43 -35 93 28 177 133 177
41 0 53 -5 81 -33z m10803 17 c51 -35 71 -138 38 -189 -36 -54 -126 -74 -175
-38 -80 59 -75 187 10 230 33 18 100 16 127 -3z m-10622 -1417 c31 -28 37 -42
41 -83 7 -70 -15 -110 -74 -136 -82 -36 -159 2 -182 89 -13 47 -3 84 32 122
29 30 52 40 105 40 34 1 49 -5 78 -32z m10445 17 c40 -20 73 -93 65 -140 -18
-94 -130 -140 -213 -87 -46 30 -67 120 -40 173 31 61 123 88 188 54z m-9913
-1312 c76 -50 67 -188 -14 -227 -67 -31 -144 -12 -178 45 -32 56 -13 155 36
181 58 31 110 31 156 1z m9379 2 c53 -33 73 -134 38 -187 -24 -38 -65 -57
-120 -57 -37 0 -52 6 -81 33 -31 28 -37 42 -41 83 -4 35 0 60 11 82 33 64 128
87 193 46z m-8532 -1116 c60 -27 88 -134 49 -192 -35 -55 -135 -77 -185 -42
-64 44 -80 140 -32 196 14 18 36 36 47 40 31 13 91 12 121 -2z m7660 0 c59
-27 87 -135 49 -193 -35 -54 -135 -76 -185 -41 -79 55 -79 180 0 229 31 19 99
22 136 5z m-6534 -864 c20 -10 38 -32 51 -61 35 -79 6 -147 -77 -179 -42 -16
-48 -16 -87 0 -24 9 -52 28 -62 43 -27 37 -33 116 -12 148 39 60 124 82 187
49z m5435 -17 c31 -28 37 -42 41 -83 9 -91 -43 -147 -135 -147 -55 0 -91 27
-116 87 -19 45 -19 47 0 92 23 56 68 84 131 84 35 0 50 -6 79 -33z m-4110
-540 c31 -28 37 -42 41 -83 7 -70 -15 -110 -74 -136 -81 -36 -157 1 -183 89
-11 37 -10 46 9 86 25 52 66 76 129 77 34 0 49 -6 78 -33z m2790 14 c45 -28
71 -98 55 -151 -33 -112 -188 -131 -243 -30 -22 43 -23 108 -2 139 41 59 130
78 190 42z m-1400 -186 c53 -34 74 -129 40 -180 -37 -57 -119 -81 -176 -52
-41 21 -70 74 -70 128 0 42 5 53 35 83 19 19 44 37 57 39 35 8 88 0 114 -18z"/>
<path d="M12635 13383 c-1101 -24 -2195 -436 -3053 -1149 -383 -318 -741 -719
-997 -1114 -471 -729 -735 -1500 -805 -2360 -14 -173 -15 -597 0 -765 55 -651
208 -1218 482 -1785 110 -229 188 -365 336 -588 201 -304 381 -524 652 -792
845 -840 1923 -1337 3125 -1441 168 -14 633 -14 800 0 1189 104 2249 589 3094
1416 670 656 1144 1488 1365 2397 262 1078 155 2240 -299 3233 -686 1500
-2046 2567 -3655 2866 -316 59 -705 89 -1045 82z m535 -188 c965 -85 1823
-421 2575 -1008 920 -719 1558 -1766 1774 -2912 64 -339 85 -610 78 -996 -5
-305 -18 -446 -63 -714 -202 -1206 -873 -2305 -1859 -3045 -751 -563 -1618
-889 -2557 -961 -203 -15 -694 -7 -878 15 -897 108 -1676 418 -2375 946 -522
394 -956 886 -1285 1455 -93 161 -250 489 -313 655 -224 591 -327 1142 -327
1758 0 1281 500 2488 1406 3397 822 825 1881 1314 3064 1414 163 14 584 12
760 -4z"/>
<path d="M11690 11405 l0 -385 -235 0 -235 0 0 -1165 0 -1165 1555 0 1555 0
-2 1163 -3 1162 -232 3 -233 2 0 385 0 385 -1085 0 -1085 0 0 -385z m2018
-1168 l2 -1398 -157 3 -158 3 -3 463 -2 462 -620 0 -620 0 0 -465 0 -465 -155
0 -155 0 0 1400 0 1400 933 -2 932 -3 3 -1398z m-2018 -387 l0 -1011 -157 3
-158 3 -3 1008 -2 1007 160 0 160 0 0 -1010z m2480 0 l0 -1010 -155 0 -155 0
0 1010 0 1010 155 0 155 0 0 -1010z m-1470 -620 l0 -390 -195 0 -195 0 0 390
0 390 195 0 195 0 0 -390z m540 0 l0 -390 -195 0 -195 0 0 390 0 390 195 0
195 0 0 -390z"/>
<path d="M12460 11175 l0 -155 -155 0 -155 0 0 -315 0 -315 155 0 155 0 0
-155 0 -155 313 2 312 3 3 152 3 152 152 3 152 3 0 310 0 310 -152 3 -152 3
-3 152 -3 152 -312 3 -313 2 0 -155z m470 -160 l0 -155 155 0 155 0 0 -155 0
-155 -155 0 -155 0 0 -155 0 -155 -155 0 -155 0 0 155 0 155 -155 0 -155 0 0
155 0 155 155 0 155 0 0 155 0 155 155 0 155 0 0 -155z"/>
<path d="M15624 7966 c-3 -8 -4 -31 -2 -52 3 -37 5 -39 46 -48 l42 -9 0 -95
c0 -90 -1 -94 -17 -80 -79 69 -201 60 -275 -18 -50 -54 -72 -119 -76 -231 -7
-161 37 -261 132 -304 79 -36 189 -18 233 38 9 12 12 9 18 -17 l7 -31 111 3
112 3 3 48 c3 49 3 50 -50 61 l-28 6 0 370 0 370 -125 0 c-98 0 -127 -3 -131
-14z m61 -401 c24 -23 25 -30 25 -148 0 -117 -1 -125 -24 -146 -32 -30 -89
-38 -122 -16 -36 24 -54 73 -54 153 0 125 34 182 107 182 33 0 50 -6 68 -25z"/>
<path d="M9120 7909 c-68 -28 -152 -109 -185 -182 -53 -115 -53 -299 0 -414
29 -65 104 -141 170 -173 44 -22 63 -25 160 -25 98 0 116 3 165 26 31 14 73
41 93 59 l38 33 -3 81 -3 81 -62 3 c-68 3 -59 14 -79 -88 -7 -39 -48 -60 -125
-67 -139 -13 -223 92 -223 277 0 134 40 222 118 260 86 41 218 13 230 -49 3
-17 9 -45 12 -61 6 -31 6 -31 67 -28 l62 3 3 81 3 81 -36 32 c-20 17 -59 43
-88 58 -45 23 -66 27 -157 30 -89 3 -114 0 -160 -18z"/>
<path d="M13550 7914 c-133 -46 -199 -165 -156 -278 29 -75 106 -129 251 -176
93 -30 153 -65 161 -94 11 -47 0 -79 -36 -104 -31 -21 -44 -23 -105 -20 -38 3
-84 12 -101 21 -28 14 -33 23 -40 74 l-9 58 -65 0 -65 0 0 -90 0 -90 55 -37
c79 -53 158 -72 272 -66 110 6 169 30 222 88 40 44 51 88 43 167 -10 100 -75
157 -247 218 -169 60 -201 89 -169 158 23 50 110 70 205 46 49 -13 58 -24 69
-86 l7 -43 64 0 64 0 0 88 0 88 -54 33 c-30 18 -78 39 -108 47 -70 18 -201 17
-258 -2z"/>
<path d="M11700 7870 c0 -52 1 -53 53 -64 l27 -6 0 -280 0 -280 -27 -6 c-52
-11 -53 -12 -53 -64 l0 -50 215 0 c235 0 271 7 356 66 48 33 102 114 117 176
15 61 15 256 0 316 -25 104 -114 198 -216 228 -32 10 -107 14 -259 14 l-213 0
0 -50z m453 -113 c64 -49 72 -74 72 -232 0 -159 -11 -196 -72 -242 -30 -23
-47 -27 -119 -31 l-84 -5 0 273 0 272 83 -3 c73 -4 88 -8 120 -32z"/>
<path d="M9780 7712 c-30 -10 -70 -26 -88 -36 -33 -17 -33 -17 -30 -84 l3 -67
65 0 c62 0 65 1 68 25 5 35 29 50 82 50 61 0 90 -28 90 -87 l0 -41 -95 -7
c-125 -9 -190 -40 -222 -105 -13 -24 -23 -60 -23 -80 0 -58 38 -121 90 -148
38 -20 57 -23 116 -20 59 3 77 8 107 31 43 33 45 33 49 5 3 -22 8 -23 101 -26
l97 -3 0 51 c0 45 -3 52 -25 60 l-25 10 0 164 c0 176 -6 204 -48 249 -66 70
-202 96 -312 59z m190 -386 c0 -57 -32 -86 -96 -86 -47 0 -74 19 -74 53 1 48
44 75 123 76 l47 1 0 -44z"/>
<path d="M10402 7716 c-120 -40 -179 -161 -122 -254 32 -52 73 -72 228 -112
46 -12 82 -40 82 -65 0 -31 -38 -55 -87 -55 -77 0 -90 7 -105 54 l-13 41 -58
3 -58 3 3 -78 3 -77 58 -30 c45 -23 75 -30 137 -34 174 -10 280 60 280 184 0
94 -60 146 -207 180 -115 26 -152 69 -97 113 31 25 71 27 119 7 27 -12 35 -22
41 -50 l6 -36 59 0 59 0 0 75 c0 66 -2 76 -23 89 -69 46 -227 68 -305 42z"/>
<path d="M10970 7712 c-30 -10 -70 -26 -88 -36 -33 -17 -33 -17 -30 -84 l3
-67 65 0 c62 0 65 1 68 25 5 35 29 50 82 50 61 0 90 -28 90 -87 l0 -41 -95 -7
c-125 -9 -190 -40 -222 -105 -13 -24 -23 -60 -23 -80 0 -58 38 -121 90 -148
38 -20 57 -23 116 -20 59 3 77 8 107 31 43 33 45 33 49 5 3 -22 8 -23 101 -26
l97 -3 0 51 c0 45 -3 52 -25 60 l-25 10 0 164 c0 176 -6 204 -48 249 -66 70
-202 96 -312 59z m190 -386 c0 -57 -32 -86 -96 -86 -47 0 -74 19 -74 53 1 48
44 75 123 76 l47 1 0 -44z"/>
<path d="M12630 7712 c-30 -10 -70 -26 -88 -36 -33 -17 -33 -17 -30 -84 l3
-67 65 0 c62 0 65 1 68 25 5 35 29 50 82 50 61 0 90 -28 90 -87 l0 -41 -95 -7
c-125 -9 -190 -40 -222 -105 -13 -24 -23 -60 -23 -80 0 -58 38 -121 90 -148
38 -20 57 -23 116 -20 59 3 77 8 107 31 43 33 45 33 49 5 3 -22 8 -23 101 -26
l97 -3 0 51 c0 45 -3 52 -25 60 l-25 10 0 164 c0 176 -6 204 -48 249 -66 70
-202 96 -312 59z m190 -386 c0 -57 -32 -86 -96 -86 -47 0 -74 19 -74 53 1 48
44 75 123 76 l47 1 0 -44z"/>
<path d="M14186 7709 c-101 -35 -106 -41 -106 -120 l0 -69 64 0 64 0 6 34 c7
37 24 46 87 46 52 0 80 -26 86 -81 l5 -46 -88 -7 c-143 -11 -219 -46 -245
-113 -17 -46 -11 -127 14 -163 42 -62 69 -75 161 -75 73 0 87 3 124 28 l42 27
6 -25 c6 -25 8 -25 106 -25 l99 0 -3 53 c-3 45 -6 52 -25 55 -23 3 -23 5 -23
160 0 86 -5 175 -11 197 -33 118 -207 178 -363 124z m204 -384 c0 -40 -4 -47
-32 -65 -37 -22 -107 -27 -126 -8 -7 7 -12 27 -12 45 0 45 45 73 118 73 l52 0
0 -45z"/>
<path d="M16177 7714 c-58 -18 -120 -77 -149 -142 -29 -66 -36 -202 -14 -270
24 -70 67 -126 123 -159 44 -26 56 -28 153 -28 93 0 111 3 163 27 31 15 57 33
57 40 0 7 -9 33 -20 57 -16 34 -24 42 -37 36 -86 -36 -170 -44 -211 -21 -30
16 -62 65 -62 94 0 22 0 22 176 22 l177 0 -5 78 c-10 139 -47 211 -131 254
-54 27 -155 33 -220 12z m129 -124 c18 0 54 -58 54 -87 0 -22 -3 -23 -90 -23
-85 0 -90 1 -90 21 0 44 64 105 98 93 8 -2 20 -4 28 -4z"/>
<path d="M14620 7666 c0 -51 1 -53 33 -62 l32 -10 5 -174 c3 -96 10 -184 14
-195 33 -75 96 -114 183 -115 62 0 99 13 135 47 l28 27 6 -32 7 -32 109 0 109
0 -3 52 c-3 49 -5 52 -35 60 l-33 9 0 239 0 240 -120 0 -120 0 0 -54 c0 -54 0
-54 35 -60 l35 -7 0 -159 c0 -158 0 -160 -25 -176 -40 -26 -96 -29 -124 -7
-32 26 -40 81 -40 291 l-1 172 -115 0 -115 0 0 -54z"/>
</g>
</svg>
