<?xml version="1.0" standalone="no"?>
<!DOCTYPE svg PUBLIC "-//W3C//DTD SVG 20010904//EN"
 "http://www.w3.org/TR/2001/REC-SVG-20010904/DTD/svg10.dtd">
<svg version="1.0" xmlns="http://www.w3.org/2000/svg"
 width="2550.000000pt" height="1680.000000pt" viewBox="0 0 2550.000000 1680.000000"
 preserveAspectRatio="xMidYMid meet">

<g transform="translate(0.000000,1680.000000) scale(0.100000,-0.100000)"
fill="#000000" stroke="none">
<path d="M12694 11816 c-42 -19 -76 -69 -82 -122 -6 -53 11 -96 49 -129 34
-28 37 -45 9 -45 -56 0 -106 40 -173 140 -31 47 -65 65 -101 56 -13 -3 -63
-42 -111 -86 -208 -193 -355 -273 -529 -288 l-79 -7 28 -33 c40 -47 100 -75
166 -77 31 -1 66 -9 80 -18 47 -31 111 -40 172 -25 44 12 58 12 72 2 29 -21
87 -26 138 -10 42 12 53 13 82 0 40 -16 103 -18 140 -4 19 7 34 6 55 -5 16 -8
43 -15 60 -15 l30 0 0 -189 0 -188 -82 19 c-225 52 -433 127 -412 148 17 17
116 30 244 32 115 2 127 4 147 25 35 34 30 61 -14 80 -32 13 -64 15 -193 9
-219 -8 -320 -39 -355 -106 -55 -107 54 -190 335 -258 80 -19 151 -36 159 -38
9 -3 2 -16 -24 -41 -72 -70 -105 -186 -71 -251 18 -35 109 -121 161 -152 22
-13 42 -25 44 -27 3 -2 -30 -35 -73 -74 -111 -103 -138 -165 -110 -252 19 -56
95 -143 162 -185 l48 -29 -42 81 c-23 45 -47 101 -54 125 -17 63 5 114 78 182
l57 54 5 -163 c5 -148 7 -165 25 -178 11 -8 26 -13 35 -12 31 6 40 50 40 196
0 78 4 142 8 142 4 0 26 -19 49 -42 90 -94 95 -152 25 -291 l-47 -95 30 16
c49 28 144 128 165 174 29 63 26 125 -8 179 -27 42 -137 149 -154 149 -21 0
-4 27 30 47 102 58 182 161 182 234 -1 48 -34 117 -82 166 -40 41 -41 42 -17
47 303 70 380 98 450 165 38 37 49 54 49 79 0 45 -49 96 -117 122 -96 36 -400
54 -453 27 -33 -16 -38 -57 -10 -82 18 -16 40 -19 138 -22 134 -3 202 -10 239
-24 l26 -10 -22 -15 c-34 -25 -170 -71 -317 -109 -74 -19 -139 -35 -145 -35
-5 0 -9 75 -9 185 l0 185 30 0 c17 0 47 7 66 15 25 10 41 12 54 5 28 -15 108
-12 145 6 24 11 39 13 52 6 39 -21 107 -23 148 -4 35 16 44 17 90 5 57 -16
102 -10 160 19 24 13 62 22 95 23 66 2 105 21 150 72 l34 38 -75 6 c-93 7
-145 22 -234 66 -87 44 -184 116 -298 222 -49 44 -100 84 -113 87 -41 10 -70
-11 -120 -85 -46 -70 -79 -94 -143 -107 -39 -8 -41 10 -6 38 36 28 55 70 55
121 0 106 -115 177 -216 133z m10 -1237 c7 -39 8 -269 1 -269 -15 0 -115 71
-129 91 -21 30 -21 98 0 127 19 28 92 82 109 82 7 0 15 -14 19 -31z m166 9
c18 -13 42 -35 52 -49 24 -33 34 -99 18 -128 -10 -19 -109 -91 -125 -91 -7 0
-6 239 1 268 4 12 10 22 14 22 4 0 22 -10 40 -22z"/>
<path d="M16984 9048 c-26 -18 -56 -45 -67 -59 l-19 -27 42 -68 c88 -146 160
-330 160 -410 l0 -23 -56 26 c-51 23 -60 24 -98 13 -58 -17 -187 -151 -244
-252 -73 -130 -96 -207 -97 -324 0 -94 2 -103 28 -141 50 -73 156 -113 230
-87 61 22 141 86 198 162 64 85 141 240 176 357 24 80 27 106 27 240 0 133 -3
161 -27 249 -43 155 -156 376 -193 376 -6 0 -33 -15 -60 -32z m112 -824 c-32
-154 -108 -306 -201 -401 -66 -68 -91 -77 -126 -42 -76 76 103 440 286 580
l50 38 3 -50 c2 -28 -4 -84 -12 -125z"/>
<path d="M9019 8916 c-345 -96 -611 -534 -559 -925 23 -179 103 -280 259 -327
80 -24 141 -19 197 19 66 43 174 146 246 235 50 60 59 77 54 98 l-7 26 -42
-36 c-172 -147 -327 -243 -371 -232 -32 8 -83 68 -96 113 -6 21 -13 70 -17
108 -25 303 186 740 409 845 74 35 115 38 152 9 45 -35 27 -96 -51 -180 l-47
-51 19 -36 c11 -21 37 -46 57 -57 l37 -20 34 33 c74 72 115 209 84 283 -17 40
-64 80 -116 98 -44 14 -183 13 -242 -3z"/>
<path d="M12133 8910 c-164 -43 -262 -124 -313 -257 -19 -50 -19 -51 2 -92 19
-38 64 -81 86 -81 5 0 20 27 33 60 35 88 87 159 158 213 34 26 66 47 71 47 15
0 -176 -528 -298 -825 l-50 -120 21 -39 c31 -54 99 -111 166 -138 82 -32 268
-32 361 1 216 75 399 266 474 493 122 366 -25 662 -369 743 -86 21 -254 18
-342 -5z m383 -85 c104 -31 189 -113 215 -209 6 -23 11 -81 11 -131 -3 -232
-127 -467 -312 -590 -100 -66 -165 -88 -286 -93 -134 -6 -136 -4 -114 78 36
138 172 451 306 710 l76 145 -27 21 c-15 12 -50 32 -77 45 -40 19 -46 25 -31
30 33 13 188 9 239 -6z"/>
<path d="M14515 8916 c-200 -48 -315 -208 -275 -378 11 -44 23 -63 71 -109 58
-58 96 -78 449 -247 114 -55 180 -109 180 -149 0 -43 -39 -103 -86 -133 -63
-40 -131 -54 -228 -47 -214 15 -403 117 -472 254 -16 32 -30 60 -32 62 -4 8
-33 -33 -57 -84 -28 -58 -33 -131 -10 -174 42 -83 216 -191 372 -232 207 -55
376 -26 483 81 104 104 139 294 78 418 -37 73 -97 115 -313 222 -198 97 -313
169 -335 210 -56 104 151 180 370 136 103 -21 172 -53 234 -107 l47 -42 26 24
c14 13 32 39 40 58 16 36 20 139 6 151 -17 15 -176 71 -244 85 -83 18 -234 18
-304 1z"/>
<path d="M10370 8562 c-48 -23 -102 -80 -128 -133 -28 -58 -29 -136 -2 -247
28 -115 27 -142 -5 -142 -44 0 -132 -40 -180 -82 -61 -53 -93 -106 -106 -172
-14 -66 2 -102 64 -147 38 -28 47 -31 102 -26 150 11 244 120 253 294 l4 81
52 14 c39 11 51 19 51 34 0 16 -7 19 -52 19 l-53 -1 0 66 c0 78 22 171 51 211
25 36 65 48 87 26 14 -14 14 -23 2 -72 -10 -43 -11 -58 -1 -68 28 -28 87 63
98 153 l6 50 -80 80 c-87 87 -102 92 -163 62z m-105 -644 c-16 -78 -64 -153
-128 -199 -47 -34 -67 -26 -67 25 0 50 60 126 139 177 57 37 64 36 56 -3z"/>
<path d="M16103 8493 c-114 -100 -249 -395 -260 -568 -5 -77 -4 -82 23 -114
32 -39 95 -70 140 -71 35 0 78 41 172 165 49 65 52 67 52 39 0 -91 44 -149
137 -184 76 -28 87 -23 67 32 -22 57 -21 149 0 223 10 33 54 138 99 233 77
166 80 173 61 187 -24 18 -80 35 -117 35 -45 0 -70 -36 -171 -250 -35 -75
-173 -269 -244 -344 l-37 -40 -3 33 c-8 82 109 373 211 526 42 63 45 71 31 86
-14 16 -84 39 -116 39 -8 0 -28 -12 -45 -27z"/>
<path d="M17687 8509 c-145 -23 -331 -229 -382 -425 -19 -72 -19 -184 -2 -227
34 -79 129 -147 208 -147 62 0 156 55 248 147 81 81 83 85 66 103 -17 19 -19
18 -87 -45 -79 -73 -155 -115 -210 -115 -46 0 -64 23 -73 95 l-7 50 115 58
c190 94 272 191 300 351 l11 67 -34 34 c-48 47 -93 63 -153 54z m59 -181 c-18
-92 -120 -215 -224 -271 l-52 -29 19 51 c42 112 130 223 203 260 57 28 62 27
54 -11z"/>
<path d="M9620 8471 c-115 -61 -246 -245 -295 -416 -58 -198 32 -367 162 -304
48 23 159 137 198 203 15 25 28 46 29 46 1 0 -3 -31 -10 -70 -13 -78 -5 -141
21 -170 21 -23 82 -27 134 -9 34 12 38 21 16 39 -22 18 -29 95 -15 173 14 77
63 229 104 320 14 32 26 64 26 73 0 15 -72 53 -102 54 -11 0 -41 -46 -93 -142
-102 -189 -192 -323 -254 -381 -27 -26 -55 -47 -60 -47 -35 0 -29 86 12 187
60 147 210 307 309 328 35 8 35 13 -1 61 -53 75 -111 92 -181 55z"/>
<path d="M10884 8461 c-125 -72 -255 -273 -292 -449 -14 -68 -14 -90 -4 -138
14 -69 50 -119 97 -134 31 -10 41 -9 78 10 58 30 129 101 189 190 28 41 48 66
44 55 -16 -44 -27 -129 -21 -166 10 -61 38 -89 89 -89 40 0 106 16 106 26 0 3
-10 18 -21 34 -20 26 -21 37 -16 107 7 100 26 168 88 323 l50 125 -26 22 c-22
20 -91 42 -99 32 -1 -2 -31 -58 -66 -124 -34 -66 -90 -165 -124 -219 -63 -103
-172 -226 -200 -226 -24 0 -29 42 -12 109 43 166 186 349 312 397 50 19 53 29
22 70 -65 82 -110 93 -194 45z"/>
<path d="M13222 8473 c-84 -41 -197 -173 -257 -299 -97 -203 -83 -382 33 -431
29 -12 37 -12 77 6 58 26 124 88 181 172 26 38 49 68 50 66 2 -1 -1 -20 -6
-42 -21 -88 -9 -163 29 -192 20 -16 92 -16 126 -1 29 13 30 16 10 42 -22 29
-19 147 6 242 11 43 41 129 66 189 24 61 45 116 46 124 2 17 -69 61 -98 61
-15 0 -32 -23 -69 -93 -80 -151 -182 -318 -233 -381 -51 -63 -105 -102 -124
-90 -32 19 24 201 92 302 54 79 149 165 212 192 31 14 57 31 57 39 0 8 -22 36
-49 62 -54 55 -88 62 -149 32z"/>
<path d="M15423 8469 c-24 -12 -75 -56 -115 -98 -217 -231 -267 -565 -95 -630
60 -23 174 62 265 198 37 56 41 59 34 30 -4 -19 -7 -69 -7 -112 0 -71 2 -81
24 -98 26 -21 81 -25 130 -8 31 11 39 23 21 34 -5 3 -15 25 -21 48 -20 74 24
262 102 436 39 86 38 98 -13 121 -24 11 -50 20 -60 20 -11 0 -37 -40 -81 -123
-121 -229 -221 -376 -288 -423 -51 -35 -63 -25 -56 48 4 43 18 85 53 156 39
79 63 112 129 178 58 59 93 85 130 99 28 10 51 20 53 21 9 6 -31 65 -63 93
-43 37 -82 40 -142 10z"/>
</g>
</svg>
